# xmcd
#
# Track frame offsets:
#	150
#	18254
#	38126
#	51481
#	65392
#	80274
#	97036
#	113463
#	131964
#	145147
#	161417
#	179031
#	195584
#	214782
#	232352
#
# Disc length: 3378 seconds
#
# Revision: 0
# Processed by: cddbd v1.5.1PL0 Copyright (c) Steve Scherf et al.
# Submitted via: audiograbber 1.83.01
#
DISCID=d80d300f
DTITLE=Ronnie Millsap - CB90127
DYEAR=1900
DGENRE=Karaoke Country
TTITLE0=Any Day Now
TTITLE1=Nobody Likes Sads Songs
TTITLE2=Please Don't Tell Me How The Story Ends
TTITLE3=What Goes ON When The Sun Goes Down
TTITLE4=Let My Love Be Your Pillow
TTITLE5=Only ONe Love In My LIfe
TTITLE6=Let's Take The Long way Around The  World
TTITLE7=Why Don't You Spend The Night
TTITLE8=My Heart
TTITLE9=Cowboys And Clowns
TTITLE10=Am I Losing You
TTITLE11=Wouldn't Have Missed It For The World
TTITLE12=She Keeps The Home Fires Burning
TTITLE13=Happy, Happy Birthday Darling
TTITLE14=How Do I Turn You On
EXTD=
EXTT0=
EXTT1=
EXTT2=
EXTT3=
EXTT4=
EXTT5=
EXTT6=
EXTT7=
EXTT8=
EXTT9=
EXTT10=
EXTT11=
EXTT12=
EXTT13=
EXTT14=
PLAYORDER=
